<?xml version="1.0" encoding="UTF-8"?>
<!-- Generator: visioncortex VTracer 0.6.4 -->
<svg version="1.1" xmlns="http://www.w3.org/2000/svg" width="2000" height="822">
<path d="M0 0 C660 0 1320 0 2000 0 C2000 271.26 2000 542.52 2000 822 C1340 822 680 822 0 822 C0 550.74 0 279.48 0 0 Z " fill="#48AE2B" transform="translate(0,0)"/>
<path d="M0 0 C1.60875 -0.01836914 1.60875 -0.01836914 3.25 -0.03710938 C9.97506669 -0.04938139 16.09682413 0.60208586 22.625 2.1875 C23.37313965 2.35386963 24.1212793 2.52023926 24.89208984 2.69165039 C37.16402396 5.45974574 48.3856761 9.55799195 59.625 15.1875 C60.36073242 15.55472168 61.09646484 15.92194336 61.85449219 16.30029297 C77.28853947 24.13889772 91.73247686 34.12020142 104.32421875 46.02734375 C106.30046369 47.88279952 108.31506538 49.65590446 110.3671875 51.42578125 C114.76902337 55.26402666 118.9360976 59.3064053 123.0625 63.4375 C123.80967285 64.18547852 124.5568457 64.93345703 125.32666016 65.70410156 C130.02818826 70.45790303 134.4170237 75.27591917 138.5390625 80.54296875 C140.45867067 82.97662929 142.45723824 85.32020256 144.4934082 87.65649414 C167.88694547 114.6382255 186.45449604 146.22089202 203.23730469 177.60888672 C204.48575395 179.9287532 205.75701263 182.23375417 207.0390625 184.53515625 C233.02826327 231.75711549 252.03482872 284.6167459 265.01806641 336.76269531 C265.55443405 338.90557681 266.10631438 341.04332677 266.66796875 343.1796875 C272.29647502 364.91261375 276.71106662 386.92672237 279.625 409.1875 C279.80377686 410.48453857 279.98255371 411.78157715 280.16674805 413.11791992 C281.81986264 425.82289 281.98109406 438.45171609 281.9375 451.25 C281.93600952 452.33122131 281.93451904 453.41244263 281.9329834 454.52642822 C281.89396466 470.26175414 281.51867121 485.6760764 278.625 501.1875 C278.47514648 502.01620605 278.32529297 502.84491211 278.17089844 503.69873047 C277.28875892 508.46434408 276.27562076 513.18580011 275.15771484 517.90136719 C274.62165391 520.20185965 274.1311184 522.50890249 273.64453125 524.8203125 C264.23605408 567.63722915 240.70264993 609.65710147 210.92578125 641.703125 C208.93985095 643.84752512 207.02264272 646.02793593 205.125 648.25 C198.49292691 655.84279396 191.32284084 662.65036417 183.4375 668.92578125 C181.59499953 670.40745871 179.78067125 671.92503121 178 673.48046875 C163.44680038 686.15250194 146.75063233 696.37703642 129.625 705.1875 C128.82690918 705.5995166 128.02881836 706.0115332 127.20654297 706.43603516 C97.61215699 721.53189773 64.71911053 731.65278306 31.625 735.1875 C30.87734375 735.27813721 30.1296875 735.36877441 29.359375 735.4621582 C2.75540016 738.35445851 -25.1370141 737.20174053 -51.375 732.1875 C-52.79087402 731.93057373 -52.79087402 731.93057373 -54.23535156 731.66845703 C-98.80827315 723.4033321 -141.2881806 702.68178339 -176.375 674.1875 C-176.89384766 673.77161621 -177.41269531 673.35573242 -177.94726562 672.92724609 C-186.15626836 666.30441513 -193.70772552 659.05559995 -201.1875 651.625 C-202.49460937 650.33178833 -202.49460937 650.33178833 -203.828125 649.01245117 C-209.7646285 643.04714614 -215.16297152 636.79194365 -220.375 630.1875 C-220.90907471 629.51807373 -221.44314941 628.84864746 -221.9934082 628.15893555 C-240.28781074 605.01187317 -253.88271329 579.38236513 -264.34423828 551.88818359 C-265.17766504 549.70453443 -266.03153731 547.53213921 -266.90234375 545.36328125 C-277.90999655 516.77151855 -281.61446544 484.74603883 -281.5625 454.3125 C-281.56156342 453.59351532 -281.56062683 452.87453064 -281.55966187 452.13375854 C-281.52309879 439.06633278 -280.94319627 426.17084207 -279.375 413.1875 C-279.1569873 411.36387939 -279.1569873 411.36387939 -278.93457031 409.50341797 C-270.4397942 341.01110639 -248.61812323 273.54612351 -219.375 211.1875 C-218.94429199 210.26050293 -218.51358398 209.33350586 -218.06982422 208.37841797 C-199.04410586 167.53243227 -176.50855625 128.49293679 -148.375 93.1875 C-147.55515625 92.15496094 -146.7353125 91.12242187 -145.890625 90.05859375 C-141.58422333 84.72014064 -137.09865019 79.57463715 -132.4765625 74.5078125 C-130.65217206 72.49352269 -128.88406198 70.44601386 -127.125 68.375 C-119.49152385 59.64597866 -111.19716897 51.54342916 -102.09765625 44.35546875 C-100.24022399 42.87645167 -98.41536543 41.3558167 -96.62109375 39.80078125 C-69.94101 16.678042 -35.65104903 0.02127151 0 0 Z " fill="#48AE2A" transform="translate(610.375,42.8125)"/>
<path d="M0 0 C1.60875 -0.01836914 1.60875 -0.01836914 3.25 -0.03710938 C9.97506669 -0.04938139 16.09682413 0.60208586 22.625 2.1875 C23.37313965 2.35386963 24.1212793 2.52023926 24.89208984 2.69165039 C37.16402396 5.45974574 48.3856761 9.55799195 59.625 15.1875 C60.36073242 15.55472168 61.09646484 15.92194336 61.85449219 16.30029297 C77.28853947 24.13889772 91.73247686 34.12020142 104.32421875 46.02734375 C106.30046369 47.88279952 108.31506538 49.65590446 110.3671875 51.42578125 C114.76902337 55.26402666 118.9360976 59.3064053 123.0625 63.4375 C123.80967285 64.18547852 124.5568457 64.93345703 125.32666016 65.70410156 C130.02818826 70.45790303 134.4170237 75.27591917 138.5390625 80.54296875 C140.45867067 82.97662929 142.45723824 85.32020256 144.4934082 87.65649414 C167.88694547 114.6382255 186.45449604 146.22089202 203.23730469 177.60888672 C204.48575395 179.9287532 205.75701263 182.23375417 207.0390625 184.53515625 C233.02826327 231.75711549 252.03482872 284.6167459 265.01806641 336.76269531 C265.55443405 338.90557681 266.10631438 341.04332677 266.66796875 343.1796875 C272.29647502 364.91261375 276.71106662 386.92672237 279.625 409.1875 C279.80377686 410.48453857 279.98255371 411.78157715 280.16674805 413.11791992 C281.81986264 425.82289 281.98109406 438.45171609 281.9375 451.25 C281.93600952 452.33122131 281.93451904 453.41244263 281.9329834 454.52642822 C281.89396466 470.26175414 281.51867121 485.6760764 278.625 501.1875 C278.47514648 502.01620605 278.32529297 502.84491211 278.17089844 503.69873047 C277.28875892 508.46434408 276.27562076 513.18580011 275.15771484 517.90136719 C274.62165391 520.20185965 274.1311184 522.50890249 273.64453125 524.8203125 C264.23605408 567.63722915 240.70264993 609.65710147 210.92578125 641.703125 C208.93985095 643.84752512 207.02264272 646.02793593 205.125 648.25 C198.49292691 655.84279396 191.32284084 662.65036417 183.4375 668.92578125 C181.59499953 670.40745871 179.78067125 671.92503121 178 673.48046875 C163.44680038 686.15250194 146.75063233 696.37703642 129.625 705.1875 C128.82690918 705.5995166 128.02881836 706.0115332 127.20654297 706.43603516 C97.61215699 721.53189773 64.71911053 731.65278306 31.625 735.1875 C30.87734375 735.27813721 30.1296875 735.36877441 29.359375 735.4621582 C2.75540016 738.35445851 -25.1370141 737.20174053 -51.375 732.1875 C-52.79087402 731.93057373 -52.79087402 731.93057373 -54.23535156 731.66845703 C-98.80827315 723.4033321 -141.2881806 702.68178339 -176.375 674.1875 C-176.89384766 673.77161621 -177.41269531 673.35573242 -177.94726562 672.92724609 C-186.15626836 666.30441513 -193.70772552 659.05559995 -201.1875 651.625 C-202.49460937 650.33178833 -202.49460937 650.33178833 -203.828125 649.01245117 C-209.7646285 643.04714614 -215.16297152 636.79194365 -220.375 630.1875 C-220.90907471 629.51807373 -221.44314941 628.84864746 -221.9934082 628.15893555 C-240.28781074 605.01187317 -253.88271329 579.38236513 -264.34423828 551.88818359 C-265.17766504 549.70453443 -266.03153731 547.53213921 -266.90234375 545.36328125 C-277.90999655 516.77151855 -281.61446544 484.74603883 -281.5625 454.3125 C-281.56156342 453.59351532 -281.56062683 452.87453064 -281.55966187 452.13375854 C-281.52309879 439.06633278 -280.94319627 426.17084207 -279.375 413.1875 C-279.1569873 411.36387939 -279.1569873 411.36387939 -278.93457031 409.50341797 C-270.4397942 341.01110639 -248.61812323 273.54612351 -219.375 211.1875 C-218.94429199 210.26050293 -218.51358398 209.33350586 -218.06982422 208.37841797 C-199.04410586 167.53243227 -176.50855625 128.49293679 -148.375 93.1875 C-147.55515625 92.15496094 -146.7353125 91.12242187 -145.890625 90.05859375 C-141.58422333 84.72014064 -137.09865019 79.57463715 -132.4765625 74.5078125 C-130.65217206 72.49352269 -128.88406198 70.44601386 -127.125 68.375 C-119.49152385 59.64597866 -111.19716897 51.54342916 -102.09765625 44.35546875 C-100.24022399 42.87645167 -98.41536543 41.3558167 -96.62109375 39.80078125 C-69.94101 16.678042 -35.65104903 0.02127151 0 0 Z M-75.375 81.1875 C-76.68210937 82.32832031 -76.68210937 82.32832031 -78.015625 83.4921875 C-87.04273937 91.46897725 -95.66891728 99.9189635 -103.375 109.1875 C-103.82037109 109.71907715 -104.26574219 110.2506543 -104.72460938 110.79833984 C-113.4486649 121.24068445 -121.58146361 132.03543733 -129.375 143.1875 C-129.80345215 143.79851562 -130.2319043 144.40953125 -130.67333984 145.0390625 C-163.08500235 191.57621011 -186.65780201 243.84911213 -205.375 297.1875 C-205.74995605 298.25581055 -206.12491211 299.32412109 -206.51123047 300.42480469 C-218.90288306 336.02345898 -228.11167783 372.85184484 -233.375 410.1875 C-233.56118896 411.43998535 -233.74737793 412.6924707 -233.93920898 413.98291016 C-235.53339623 425.39287432 -235.71454992 436.74318961 -235.69067383 448.25146484 C-235.68751813 451.4192974 -235.71105509 454.58618846 -235.73632812 457.75390625 C-235.77804311 471.14806134 -234.72932919 484.00303005 -232.375 497.1875 C-232.18156006 498.29109863 -231.98812012 499.39469727 -231.78881836 500.53173828 C-231.30712911 503.07855414 -230.77288633 505.60019882 -230.1875 508.125 C-229.9802832 509.02138184 -229.77306641 509.91776367 -229.55957031 510.84130859 C-217.3448299 561.14606092 -185.80851599 609.24991374 -144.06201172 639.94482422 C-142.40398451 641.16614961 -140.76623502 642.41127916 -139.12890625 643.66015625 C-129.14129226 651.15643108 -118.35478392 657.27234977 -107.375 663.1875 C-106.67600586 663.56648437 -105.97701172 663.94546875 -105.25683594 664.3359375 C-95.59802115 669.47699749 -85.41545497 673.04274787 -75.0625 676.5 C-74.42442413 676.71327942 -73.78634827 676.92655884 -73.12893677 677.14630127 C-49.08600596 685.12875396 -25.51503799 688.57538288 -0.25 688.5625 C0.6112851 688.56422211 1.47257019 688.56594421 2.35995483 688.56771851 C17.3614093 688.56432164 32.04388348 687.41282732 46.75 684.3125 C48.00997803 684.05098145 48.00997803 684.05098145 49.29541016 683.78417969 C86.37690782 675.94558468 120.24976518 660.18179587 149.625 636.1875 C150.25132324 635.67687012 150.87764648 635.16624023 151.52294922 634.64013672 C163.79363626 624.55450729 174.83749525 613.72176452 184.625 601.1875 C185.40230469 600.22714844 186.17960937 599.26679687 186.98046875 598.27734375 C198.02838347 584.38402015 207.18936267 569.29332522 214.625 553.1875 C214.92744629 552.54248535 215.22989258 551.8974707 215.54150391 551.23291016 C230.04879303 520.12154506 236.79907164 487.09593233 236.8125 452.875 C236.81349701 452.20775909 236.81449402 451.54051819 236.81552124 450.85305786 C236.81299451 435.92217133 235.74842258 421.26871244 233.5625 406.5 C233.45717957 405.78216339 233.35185913 405.06432678 233.24334717 404.32473755 C223.01530955 335.48449283 198.57256721 269.2412442 167.625 207.1875 C167.14853027 206.23053223 166.67206055 205.27356445 166.18115234 204.28759766 C150.1468008 172.31698163 130.63423988 141.11276693 107.11328125 114.078125 C104.82507705 111.4199286 102.66169043 108.69851187 100.5 105.9375 C90.90728273 94.17089357 79.71015423 83.36494795 67.625 74.1875 C66.67496094 73.44371094 65.72492188 72.69992188 64.74609375 71.93359375 C15.86676912 34.27038533 -30.52504239 41.43952169 -75.375 81.1875 Z " fill="#FDEA00" transform="translate(610.375,42.8125)"/>
<path d="M0 0 C0.75741486 0.00337372 1.51482971 0.00674744 2.29519653 0.01022339 C28.86363653 0.1806702 52.4990436 6.74288838 75.8125 19.4375 C76.85664062 19.99050781 77.90078125 20.54351562 78.9765625 21.11328125 C112.15474079 39.45319775 136.25379451 72.03913218 148 107.6875 C148.62604642 109.93151053 149.22861538 112.18215167 149.8125 114.4375 C149.99441895 115.06849609 150.17633789 115.69949219 150.36376953 116.34960938 C157.4276852 141.30917617 155.9345987 170.73508953 148.8125 195.4375 C148.62026855 196.14374512 148.42803711 196.84999023 148.22998047 197.57763672 C143.55745181 214.51816288 135.20584667 230.34562005 124.8125 244.4375 C124.12929688 245.36433594 123.44609375 246.29117188 122.7421875 247.24609375 C104.71857826 270.30671926 81.9175826 286.74678174 54.8125 297.4375 C53.9153125 297.80488281 53.018125 298.17226563 52.09375 298.55078125 C46.58502329 300.69951652 40.9890985 302.24006905 35.25 303.625 C34.56574951 303.79209473 33.88149902 303.95918945 33.17651367 304.13134766 C23.01591349 306.47508035 12.79263397 306.65031111 2.41064453 306.67773438 C0.21217278 306.68739162 -1.98534184 306.7184909 -4.18359375 306.75 C-40.13193163 307.01693999 -75.93550142 291.78836572 -102.08203125 267.390625 C-103.80007461 265.79689276 -105.53615335 264.32291074 -107.375 262.875 C-111.05345643 259.68700442 -114.10157256 256.19428124 -117.1875 252.4375 C-117.96351563 251.4990625 -118.73953125 250.560625 -119.5390625 249.59375 C-126.14054208 241.42294981 -131.37046346 232.75791623 -136.1875 223.4375 C-136.50847656 222.82148926 -136.82945312 222.20547852 -137.16015625 221.57080078 C-140.91362295 214.26606773 -143.90830132 206.81297804 -146.4375 199 C-146.78880981 197.92915161 -146.78880981 197.92915161 -147.1472168 196.83666992 C-151.38357637 183.10077906 -152.73858101 169.67509006 -152.625 155.375 C-152.62229095 154.57100769 -152.61958191 153.76701538 -152.61679077 152.93865967 C-152.54825026 139.47103304 -151.53873628 126.53266698 -148.1875 113.4375 C-148.0215332 112.7681543 -147.85556641 112.09880859 -147.68457031 111.40917969 C-141.631568 88.07914482 -128.38695855 66.00107657 -111.59228516 48.87744141 C-110.15974301 47.40904836 -108.75713883 45.91580831 -107.35546875 44.41796875 C-79.86763348 15.47339419 -39.62831928 -0.34621626 0 0 Z " fill="#FEEA00" transform="translate(612.1875,360.5625)"/>
<path d="M0 0 C2 3 2 3 2 6 C1.04480469 6.4846875 0.08960938 6.969375 -0.89453125 7.46875 C-21.57350819 18.11830232 -35.96629424 31.41909421 -44.1015625 53.83203125 C-45.43273996 58.52587871 -45.89274501 63.13452376 -46 68 C-45.52691406 67.52949219 -45.05382813 67.05898438 -44.56640625 66.57421875 C-43.57447266 65.64029297 -43.57447266 65.64029297 -42.5625 64.6875 C-41.92441406 64.07261719 -41.28632812 63.45773437 -40.62890625 62.82421875 C-34.15929619 58.33490538 -27.20308277 57.51190417 -19.5 57.625 C-18.31470703 57.60759766 -18.31470703 57.60759766 -17.10546875 57.58984375 C-7.12788846 57.63883351 -0.37914608 60.65919403 6.828125 67.51953125 C16.3185449 78.35841009 14.63122435 93.56193493 14 107 C12.71852155 117.64278709 8.13054201 129.18319563 0.0390625 136.47265625 C-10.95017231 144.70405627 -22.41335199 147.26349263 -36 146 C-44.77234483 144.25256767 -51.23641198 139.76463226 -57 133 C-69.89171762 113.28165554 -68.68168501 87.42780233 -64.2578125 65.28515625 C-58.66511348 41.70178385 -44.32277803 22.33595044 -24.01220703 9.21533203 C-20.42659619 7.04969617 -16.71544822 5.17955752 -12.9375 3.375 C-11.86628906 2.86054321 -11.86628906 2.86054321 -10.7734375 2.33569336 C-3.9993103 -0.74849477 -3.9993103 -0.74849477 0 0 Z " fill="#FBFEFA" transform="translate(1568,301)"/>
<path d="M0 0 C0.62648438 0.50660156 1.25296875 1.01320313 1.8984375 1.53515625 C2.54554687 2.03144531 3.19265625 2.52773438 3.859375 3.0390625 C12.69115828 10.77153099 15.83593526 23.26608287 16.8984375 34.53515625 C18.43661472 62.11373438 14.13637565 89.68193407 -3.9765625 111.41015625 C-17.48855632 125.79134266 -36.744184 131.73943662 -55.99609375 132.5546875 C-59.1015625 132.53515625 -59.1015625 132.53515625 -60.1015625 131.53515625 C-60.14237033 129.53557261 -60.14410606 127.53470371 -60.1015625 125.53515625 C-59.07417969 125.2928125 -58.04679687 125.05046875 -56.98828125 124.80078125 C-39.40439899 120.5825224 -22.68968565 115.69921573 -12.7421875 99.48046875 C-9.22152868 93.16004792 -6.92248642 86.51536462 -5.1015625 79.53515625 C-6.09736328 79.95087891 -6.09736328 79.95087891 -7.11328125 80.375 C-8.43779297 80.91833984 -8.43779297 80.91833984 -9.7890625 81.47265625 C-11.09423828 82.01212891 -11.09423828 82.01212891 -12.42578125 82.5625 C-20.82452522 85.61547408 -31.04114259 86.03294812 -39.4765625 82.97265625 C-49.720819 78.17854607 -55.56825414 70.23267883 -59.4140625 59.84765625 C-63.58221597 45.30995023 -62.7214608 27.62784396 -55.4765625 14.28515625 C-49.86141329 5.73200721 -42.30422442 -0.56261577 -32.23046875 -3.08105469 C-22.13696503 -4.90066339 -8.90036978 -5.76756814 0 0 Z " fill="#FBFEFB" transform="translate(1654.1015625,349.46484375)"/>
<path d="M0 0 C13.73157576 13.31279576 18.63283962 29.80480778 18.9921875 48.56518555 C19.05972626 71.77530251 16.03267183 96.22342703 -0.953125 113.63671875 C-9.35836041 121.38790438 -18.52726243 125.43429957 -29.3125 128.8125 C-29.942771 129.01045166 -30.57304199 129.20840332 -31.22241211 129.41235352 C-36.68956931 130.96013004 -41.964542 131.1603107 -47.625 131.125 C-48.55417236 131.12008545 -49.48334473 131.1151709 -50.44067383 131.11010742 C-57.1206603 130.99595464 -63.08580916 130.38439404 -69.3125 127.8125 C-70.56160156 127.31943359 -70.56160156 127.31943359 -71.8359375 126.81640625 C-84.4263145 121.21853094 -93.32634356 110.71950099 -99 98.375 C-107.72949208 75.59738491 -109.08093724 48.24464759 -99.58203125 25.50390625 C-91.62451985 7.82711039 -78.64843116 -1.73919327 -60.8515625 -9 C-41.41099954 -15.5231028 -16.00749119 -13.71034367 0 0 Z M-74.5625 12.0625 C-84.16225787 24.21510206 -85.84113104 38.32033774 -85.75854492 53.2746582 C-85.7500482 55.61174184 -85.77887834 57.94635984 -85.81054688 60.28320312 C-85.89434588 78.20803433 -81.53747223 95.3207924 -68.796875 108.6171875 C-59.05757337 117.22329995 -48.13714687 119.31105516 -35.484375 119.05859375 C-26.29287212 118.34545991 -17.66735935 114.8753877 -11.55859375 107.7734375 C-2.00684147 94.22383402 -0.95953121 78.97483188 -1.05175781 62.90966797 C-1.06252178 60.68299358 -1.05177225 58.45711958 -1.0390625 56.23046875 C-1.02107615 39.51476861 -3.47257598 23.47428425 -15.3125 10.8125 C-15.83457031 10.24917969 -16.35664062 9.68585938 -16.89453125 9.10546875 C-24.33963917 1.95019472 -33.3315054 -0.65410555 -43.4375 -0.6875 C-55.78079474 -0.44237044 -65.96316482 2.76117828 -74.5625 12.0625 Z " fill="#FBFEFB" transform="translate(1084.3125,315.1875)"/>
<path d="M0 0 C3.67961344 3.21966176 5.95580951 6.55492853 7.5 11.1875 C7.59216641 13.17416923 7.62512534 15.16378208 7.62597656 17.15258789 C7.62978333 18.38139175 7.63359009 19.61019562 7.63751221 20.87623596 C7.63770607 21.53298372 7.63789993 22.18973148 7.63809967 22.86638069 C7.6415294 25.64209329 7.66291811 28.41757466 7.68333054 31.19320583 C7.72123204 36.35596587 7.75262702 41.51848129 7.75048828 46.68139648 C7.74969558 50.27731209 7.77330334 53.87238236 7.8123703 57.46807671 C7.82776081 59.48737281 7.81754127 61.50681265 7.80670166 63.52613831 C7.93325323 73.16948425 10.21657102 79.26235653 15.5 87.1875 C15.5 88.1775 15.5 89.1675 15.5 90.1875 C2.9028838 95.29012935 2.9028838 95.29012935 -2.5 94.1875 C-5.37551526 90.84568496 -7.03923831 87.3263248 -8.5 83.1875 C-13.35480553 84.94890056 -17.31003759 87.58094006 -21.5859375 90.43359375 C-28.22557426 94.42983625 -33.45471699 95.69073889 -41.0625 95.625 C-41.88685547 95.64498047 -42.71121094 95.66496094 -43.56054688 95.68554688 C-49.01994234 95.68118285 -52.20355812 94.85230571 -56.5 91.1875 C-62.91112247 81.92698977 -63.51946604 72.00323324 -61.875 61.0625 C-60.27517868 54.02328617 -56.28673782 49.26770101 -50.625 44.9375 C-44.78166574 41.31365068 -38.20488339 40.02668266 -31.56201172 38.62548828 C-29.55731413 38.19967399 -27.56207515 37.74345236 -25.56640625 37.27734375 C-20.09079228 36.03156914 -15.13801595 35.01819021 -9.5 35.1875 C-9.58730853 32.45685053 -9.69422124 29.7293381 -9.8125 27 C-9.84633789 25.84661133 -9.84633789 25.84661133 -9.88085938 24.66992188 C-10.09808232 20.06874504 -10.56686646 16.939348 -13.5 13.1875 C-18.91008711 9.30333489 -23.42750019 9.03234498 -30 9 C-31.96453125 8.97873047 -31.96453125 8.97873047 -33.96875 8.95703125 C-38.07885766 9.20826391 -38.07885766 9.20826391 -41.5 11.1875 C-45.31773972 16.90870202 -47.55246692 23.63238865 -49.5 30.1875 C-52.14 30.1875 -54.78 30.1875 -57.5 30.1875 C-58.12037491 21.27822697 -57.49334677 12.94756935 -51.546875 5.859375 C-37.84134288 -7.07941406 -16.57051847 -8.58116135 0 0 Z " fill="#FBFEFB" transform="translate(1254.5,349.8125)"/>
<path d="M0 0 C6.81443404 4.23421144 11.39558487 10.96413241 13.81640625 18.5625 C15.45983274 26.28545524 15.19075876 34.14709787 15 42 C8.0342161 44.88244265 1.88827333 45.40601261 -5.59765625 45.29296875 C-6.67252792 45.28872391 -7.7473996 45.28447906 -8.85484314 45.28010559 C-12.25765998 45.26343339 -15.65986488 45.22580223 -19.0625 45.1875 C-21.38215285 45.17243837 -23.70181507 45.15875256 -26.02148438 45.14648438 C-31.6811952 45.11356752 -37.34055386 45.06348361 -43 45 C-42.74855489 48.18933522 -42.47031634 51.3758057 -42.1875 54.5625 C-42.11724609 55.45775391 -42.04699219 56.35300781 -41.97460938 57.27539062 C-41.32742009 64.34269758 -39.90435913 70.26401833 -35.1875 75.8125 C-34.72730469 76.37582031 -34.26710938 76.93914062 -33.79296875 77.51953125 C-28.03424894 82.27455262 -20.00755688 81.63560607 -13 81 C-5.81135151 79.45329812 0.14087282 76.69625586 6.0625 72.3671875 C7.97301707 71.01904037 9.88592577 69.99097229 12 69 C12.99 69.99 13.98 70.98 15 72 C10.72371072 82.31624589 -1.84985912 91.01323229 -11.77734375 95.16015625 C-20.77820798 97.50583602 -32.50507964 97.49221154 -40.90234375 93.30078125 C-51.47564336 86.74415412 -56.56139167 76.92560295 -59.9375 65.125 C-62.74186904 50.92897041 -63.60802452 30.9014074 -56.81640625 17.69921875 C-55.36157794 15.57673552 -53.80964762 13.82885832 -52 12 C-51.30003906 11.26265625 -50.60007812 10.5253125 -49.87890625 9.765625 C-36.14113467 -3.67889365 -17.73658191 -9.66900547 0 0 Z " fill="#FBFEFA" transform="translate(1476,350)"/>
<path d="M0 0 C4.5355391 4.5355391 2.12670707 22.14597085 2.13897705 28.34483337 C2.13866448 31.62574259 2.13239889 34.90659958 2.125 38.1875 C2.12367065 39.88681168 2.12367065 39.88681168 2.12231445 41.62045288 C2.10973443 55.35940947 1.98030924 69.08180154 1.5 82.8125 C1.10542692 94.32491751 0.83531454 105.82939689 0.76782227 117.34848022 C0.75603736 119.06045937 0.73903499 120.77241136 0.71655273 122.48428345 C0.68686617 124.85298505 0.6766741 127.2209782 0.671875 129.58984375 C0.65341522 130.65128098 0.65341522 130.65128098 0.63458252 131.73416138 C0.6476602 134.6151219 0.66496783 136.5295293 2.36547852 138.91748047 C4.57966392 140.38390289 6.57817456 140.74696454 9.1875 141.1875 C10.08855469 141.34605469 10.98960938 141.50460937 11.91796875 141.66796875 C12.60503906 141.77753906 13.29210938 141.88710938 14 142 C14 144.31 14 146.62 14 149 C-0.85 149 -15.7 149 -31 149 C-31 146.69 -31 144.38 -31 142 C-30.31292969 141.89042969 -29.62585937 141.78085937 -28.91796875 141.66796875 C-28.01691406 141.50941406 -27.11585937 141.35085938 -26.1875 141.1875 C-25.29417969 141.03667969 -24.40085937 140.88585937 -23.48046875 140.73046875 C-20.74247491 139.9241619 -19.68354217 139.27835833 -18 137 C-17.13387939 134.2017315 -16.87453212 131.6814918 -16.87301636 128.76106262 C-16.87019653 127.92188797 -16.86737671 127.08271332 -16.86447144 126.21810913 C-16.86649567 125.30542267 -16.8685199 124.39273621 -16.87060547 123.45239258 C-16.86885315 122.48425125 -16.86710083 121.51610992 -16.86529541 120.51863098 C-16.86088753 117.31057959 -16.86381417 114.10258323 -16.8671875 110.89453125 C-16.86651344 108.65410858 -16.86554257 106.41368597 -16.86428833 104.17326355 C-16.86281221 99.46649482 -16.86496055 94.75974504 -16.86962891 90.05297852 C-16.87528345 84.06411354 -16.87207402 78.07529381 -16.86605644 72.08643055 C-16.86241186 67.45085826 -16.86360789 62.81529637 -16.86618423 58.17972374 C-16.86684501 55.97486045 -16.86605527 53.76999618 -16.86370468 51.56513405 C-16.85527017 41.41597255 -16.87389541 31.27405501 -17.38330078 21.13549805 C-17.41364347 20.43271382 -17.44398617 19.7299296 -17.47524834 19.00584888 C-17.64390461 15.06410222 -17.64390461 15.06410222 -20 12 C-22.43252661 11.53837573 -22.43252661 11.53837573 -25.125 11.375 C-26.03507812 11.30023438 -26.94515625 11.22546875 -27.8828125 11.1484375 C-28.58148437 11.09945313 -29.28015625 11.05046875 -30 11 C-30 8.69 -30 6.38 -30 4 C-26.1263657 3.32523211 -22.25089817 2.66162968 -18.375 2 C-17.28058594 1.80921875 -16.18617187 1.6184375 -15.05859375 1.421875 C-13.46337891 1.15117187 -13.46337891 1.15117187 -11.8359375 0.875 C-10.86188965 0.70742188 -9.8878418 0.53984375 -8.88427734 0.3671875 C-5.87979931 -0.01530234 -3.02533245 -0.13141716 0 0 Z " fill="#FAFDF9" transform="translate(1392,295)"/>
<path d="M0 0 C2.72106694 2.72106694 2.60655572 4.84776311 3.125 8.625 C3.37636719 10.40777344 3.37636719 10.40777344 3.6328125 12.2265625 C3.75398438 13.14179688 3.87515625 14.05703125 4 15 C4.46148438 14.56429688 4.92296875 14.12859375 5.3984375 13.6796875 C13.79186091 6.016127 21.55394777 0.56852926 33.06640625 0.734375 C36 1 36 1 39.25 2.4375 C42.61149276 7.35968583 41.28565918 12.37044425 40.3125 17.921875 C39.6015817 21.62836836 38.81560045 25.31523369 38 29 C35.69 29 33.38 29 31 29 C30.82984375 28.31292969 30.6596875 27.62585938 30.484375 26.91796875 C30.24203125 26.01691406 29.9996875 25.11585938 29.75 24.1875 C29.40195313 22.84751953 29.40195313 22.84751953 29.046875 21.48046875 C27.80932905 18.54822368 26.77550462 17.52123847 24 16 C17.68161906 15.1180845 12.85778456 17.91287786 7.84765625 21.4296875 C5.28989537 23.60351387 4.07491609 25.24755044 3.73930359 28.6184082 C3.7346962 29.66859131 3.73008881 30.71877441 3.7253418 31.80078125 C3.71580978 32.9921167 3.70627777 34.18345215 3.69645691 35.41088867 C3.69736832 36.69842041 3.69827972 37.98595215 3.69921875 39.3125 C3.69533162 40.64624159 3.69099691 41.97998195 3.68623352 43.3137207 C3.6787741 46.107951 3.67906082 48.90205494 3.68432617 51.69628906 C3.69012531 55.2777122 3.67317849 58.85861894 3.6499815 62.43995667 C3.63525412 65.19375636 3.63437097 67.94743133 3.63749123 70.70126343 C3.63672793 72.66390253 3.62284887 74.62652228 3.60881042 76.58911133 C3.61815361 78.3761145 3.61815361 78.3761145 3.62768555 80.19921875 C3.62705612 81.24940186 3.6264267 82.29958496 3.6257782 83.3815918 C3.79015294 86.01482282 3.79015294 86.01482282 5.3318634 87.79614258 C10.35444836 91.42083146 18.0415711 91.87305369 24 93 C24 94.98 24 96.96 24 99 C6.51 99 -10.98 99 -29 99 C-29 96.69 -29 94.38 -29 92 C-28.38511719 91.86722656 -27.77023437 91.73445313 -27.13671875 91.59765625 C-25.92435547 91.33275391 -25.92435547 91.33275391 -24.6875 91.0625 C-23.48673828 90.80146484 -23.48673828 90.80146484 -22.26171875 90.53515625 C-19.854599 90.00113841 -19.854599 90.00113841 -17 89 C-15.90177917 85.70533752 -15.85977784 83.24169132 -15.83886719 79.77197266 C-15.82925964 78.48698883 -15.8196521 77.202005 -15.80975342 75.87808228 C-15.80490552 74.47341082 -15.80062667 73.06873731 -15.796875 71.6640625 C-15.79112122 70.22301227 -15.78536351 68.78196206 -15.77960205 67.34091187 C-15.76910072 64.31971887 -15.76325233 61.29855242 -15.75976562 58.27734375 C-15.75428163 54.41142932 -15.73025234 50.54586721 -15.70179367 46.68006325 C-15.68314434 43.70316552 -15.67796049 40.7263523 -15.67642975 37.74940109 C-15.67340803 36.32447762 -15.66539568 34.89955547 -15.65224457 33.47468948 C-15.6351375 31.478803 -15.63891587 29.48277081 -15.64355469 27.48681641 C-15.63990906 26.35225006 -15.63626343 25.21768372 -15.63250732 24.04873657 C-16.04503506 20.62638702 -16.95978379 18.75277546 -19 16 C-20.99693687 14.78856394 -20.99693687 14.78856394 -23.1875 14.1875 C-25.0746875 13.5996875 -25.0746875 13.5996875 -27 13 C-27 10.69 -27 8.38 -27 6 C-26.23816406 5.81824219 -25.47632813 5.63648438 -24.69140625 5.44921875 C-19.75778812 4.24815067 -14.90702683 3.02912502 -10.125 1.3125 C-6.63858764 0.11028884 -3.72205708 -0.4539094 0 0 Z " fill="#F9FDF8" transform="translate(1144,345)"/>
<path d="M0 0 C1.09119141 -0.020625 2.18238281 -0.04125 3.30664062 -0.0625 C4.93182617 -0.07023437 4.93182617 -0.07023437 6.58984375 -0.078125 C7.56687256 -0.0874707 8.54390137 -0.09681641 9.55053711 -0.10644531 C14.49018005 0.39490183 19.27242855 1.94361688 24.0625 3.25 C24.0625 12.82 24.0625 22.39 24.0625 32.25 C22.0825 32.25 20.1025 32.25 18.0625 32.25 C17.82015625 31.34636719 17.5778125 30.44273437 17.328125 29.51171875 C16.99296875 28.33222656 16.6578125 27.15273438 16.3125 25.9375 C15.82523438 24.17986328 15.82523438 24.17986328 15.328125 22.38671875 C13.97883954 19.04265632 13.16614046 17.96715435 10.0625 16.25 C4.1501125 14.3460108 -1.52213348 14.02361398 -7.6875 13.9375 C-8.42057373 13.91985596 -9.15364746 13.90221191 -9.90893555 13.8840332 C-15.43845704 13.89097904 -18.73364512 15.04614512 -22.625 18.9375 C-25.81962082 24.56611763 -26.25285734 30.91631974 -26.2734375 37.265625 C-26.2800943 38.00270691 -26.2867511 38.73978882 -26.29360962 39.49920654 C-26.30366369 41.04876235 -26.30842891 42.59836083 -26.30810547 44.14794922 C-26.3124643 46.48089441 -26.34881814 48.81192123 -26.38671875 51.14453125 C-26.46251502 61.21792897 -26.04271358 71.09216755 -19.5 79.3125 C-13.56821107 83.79751114 -8.52397023 85.83415584 -1.0703125 85.80078125 C7.14930547 84.35568632 16.53985702 79.53731662 22.0625 73.25 C23.7125 73.91 25.3625 74.57 27.0625 75.25 C25.56731784 80.44379067 22.3016418 83.5473184 18.5625 87.25 C17.93754639 87.87285889 17.31259277 88.49571777 16.66870117 89.13745117 C8.5196149 97.0131972 0.47458951 100.58876128 -10.890625 100.6328125 C-18.46084365 100.45911723 -25.11539591 98.41361425 -31.0234375 93.5234375 C-41.5804162 82.32105399 -44.29064797 70.00929035 -44.19824219 55.1159668 C-44.18761332 53.08416251 -44.19813271 51.05326019 -44.2109375 49.02148438 C-44.23744816 24.79700495 -44.23744816 24.79700495 -35.9453125 16.1796875 C-25.37079225 5.95187283 -14.62080003 0.06695272 0 0 Z " fill="#FAFDFA" transform="translate(1323.9375,345.75)"/>
<path d="M0 0 C5.66774584 3.21909656 9.02468992 7.01990145 10.91040039 13.27636719 C11.89169248 17.97295591 11.60287339 22.84565228 11.625 27.625 C11.645625 28.71554687 11.66625 29.80609375 11.6875 30.9296875 C11.73926131 41.7478009 9.68260496 52.11295417 1.82421875 60.0703125 C-2.75014239 64.04308272 -6.37118315 64.81692999 -12.22265625 64.703125 C-17.9363416 64.22001665 -22.16602985 62.36922394 -26.3125 58.375 C-33.02221035 50.08382474 -35.39776641 36.93854303 -35.625 26.5 C-35.66947266 25.41936279 -35.66947266 25.41936279 -35.71484375 24.31689453 C-35.81541871 21.77385663 -35.88077219 19.23187378 -35.9375 16.6875 C-35.96755127 15.8620166 -35.99760254 15.0365332 -36.02856445 14.18603516 C-36.06535043 10.22365966 -35.9627067 8.05932672 -33.875 4.6015625 C-24.44288818 -4.20829194 -11.62509848 -5.22556767 0 0 Z " fill="#49AE2C" transform="translate(1554.625,372.5)"/>
<path d="M0 0 C5.89899119 2.14173076 8.80662638 5.6755515 12 11 C15.9302865 20.17066851 16.36101997 29.38289298 16.375 39.25 C16.37661133 40.33829102 16.37822266 41.42658203 16.37988281 42.54785156 C16.13342582 60.59398029 16.13342582 60.59398029 12.62426758 64.55151367 C8.15072343 67.46432386 3.26737113 67.66135432 -1.9375 67.5625 C-2.73365723 67.55371826 -3.52981445 67.54493652 -4.35009766 67.53588867 C-10.33253874 67.32719887 -14.66064629 66.36359591 -19 62 C-19.7425 61.278125 -20.485 60.55625 -21.25 59.8125 C-26.62227808 51.17848166 -28.17968601 42.73628236 -28.1875 32.75 C-28.19974609 31.94175781 -28.21199219 31.13351562 -28.22460938 30.30078125 C-28.24659164 21.14150527 -26.81659845 13.27471032 -21 6 C-14.51426888 -0.42198929 -8.93394425 -0.91951707 0 0 Z " fill="#49AE2C" transform="translate(1637,357)"/>
<path d="M0 0 C0.12403121 4.18080601 0.21453601 8.36062502 0.2746582 12.54272461 C0.29973147 13.96381291 0.33379999 15.38477313 0.37719727 16.80541992 C0.43817858 18.85367462 0.46627762 20.90021883 0.48828125 22.94921875 C0.51446533 24.17987061 0.54064941 25.41052246 0.56762695 26.6784668 C-0.15512334 30.90772175 -1.74092053 32.3134201 -5 35 C-12.04495105 39.49302273 -19.63047598 41.95916911 -28 41 C-31.80954956 39.59212299 -32.76678137 38.40210109 -34.8125 34.875 C-37.22849801 28.36827809 -36.5675338 21.35770275 -34 15 C-28.51632605 7.32285647 -9.7821405 0 0 0 Z " fill="#4AAF2D" transform="translate(1245,392)"/>
<path d="M0 0 C5.26941936 3.88933333 9.33733286 8.37039761 10.625 14.9375 C10.76568499 18.2787685 10.74386818 21.5959835 10.625 24.9375 C2.44745792 27.23771671 -5.51774534 27.16795835 -13.9375 27.0625 C-15.34179047 27.05244735 -16.74608793 27.04332555 -18.15039062 27.03515625 C-21.55877485 27.01173093 -24.966795 26.97892746 -28.375 26.9375 C-28.41912786 24.71111742 -28.45050789 22.48447993 -28.4765625 20.2578125 C-28.49541504 19.01789551 -28.51426758 17.77797852 -28.53369141 16.50048828 C-28.31800742 11.65788504 -27.21212478 7.87650505 -24.375 3.9375 C-17.29442115 -1.84256436 -8.66621561 -2.72825306 0 0 Z " fill="#49AE2D" transform="translate(1462.375,359.0625)"/>
<path d="M0 0 C1.90625 0.453125 1.90625 0.453125 4.40625 2.640625 C6.04845546 5.71976024 6.58814464 7.04365178 5.90625 10.453125 C4.40625 13.265625 4.40625 13.265625 1.90625 15.453125 C-0.9149424 16.1757665 -3.27176466 16.17018685 -6.09375 15.453125 C-9.12166041 12.87940116 -9.95537709 11.30065906 -10.59375 7.390625 C-10.09375 4.453125 -10.09375 4.453125 -8.59375 2.078125 C-5.55853198 0.10523329 -3.57177406 -0.18658521 0 0 Z " fill="#49AE2C" transform="translate(1015.09375,504.546875)"/>
<path d="M0 0 C2.5625 2.0625 2.5625 2.0625 4 5 C4 8.77910616 3.83289714 11.00693033 1.375 13.9375 C-2.01168643 15.45259656 -4.33417263 15.52368962 -8 15 C-10.5 12.9375 -10.5 12.9375 -12 10 C-11.94021398 6.53241058 -11.60965977 4.11173251 -9.9375 1.0625 C-6.72094003 -0.70141999 -3.50614591 -0.73924763 0 0 Z " fill="#48AE2C" transform="translate(1478,505)"/>
<path d="M0 0 C9.97594419 -0.61919654 9.97594419 -0.61919654 13.6875 1.625 C15.43054644 4.77908404 15.65292967 6.44516067 15 10 C13.0625 12.875 13.0625 12.875 10 15 C6.87327402 15.41306246 4.17628148 15.23703593 1 15 C1.33 10.38 1.66 5.76 2 1 C1.34 0.67 0.68 0.34 0 0 Z " fill="#50B235" transform="translate(1631,505)"/>
<path d="M0 0 C7.39954511 -0.36391205 7.39954511 -0.36391205 10.0625 1.25 C11 3 11 3 10.6875 5.1875 C10.3471875 6.0846875 10.3471875 6.0846875 10 7 C9.34 7 8.68 7 8 7 C10.72190685 11.22104999 10.72190685 11.22104999 14 15 C12.68 15 11.36 15 10 15 C8.61876037 13.03277992 7.28511874 11.03131672 6 9 C5.01 8.67 4.02 8.34 3 8 C3 9.98 3 11.96 3 14 C3.99 14.33 4.98 14.66 6 15 C4.02 15 2.04 15 0 15 C0 10.05 0 5.1 0 0 Z " fill="#E2F7DC" transform="translate(1587,505)"/>
<path d="M0 0 C1.45792884 -0.05399736 2.91642712 -0.09279177 4.375 -0.125 C5.18710938 -0.14820313 5.99921875 -0.17140625 6.8359375 -0.1953125 C9 0 9 0 11 2 C11.125 4.625 11.125 4.625 11 7 C10.34 7 9.68 7 9 7 C10.65 9.64 12.3 12.28 14 15 C10 14 10 14 8.4375 11.5 C7.963125 10.675 7.48875 9.85 7 9 C6.01 8.67 5.02 8.34 4 8 C4 9.98 4 11.96 4 14 C4.99 14.33 5.98 14.66 7 15 C5.02 15 3.04 15 1 15 C1.33 10.38 1.66 5.76 2 1 C1.34 0.67 0.68 0.34 0 0 Z " fill="#EAFBE5" transform="translate(1521,505)"/>
<path d="M0 0 C1.45792884 -0.05399736 2.91642712 -0.09279177 4.375 -0.125 C5.18710938 -0.14820313 5.99921875 -0.17140625 6.8359375 -0.1953125 C9 0 9 0 11 2 C11.125 4.625 11.125 4.625 11 7 C10.34 7 9.68 7 9 7 C9.639375 7.94875 10.27875 8.8975 10.9375 9.875 C13 13 13 13 14 15 C11.20171644 14.61402985 10.1794116 14.19863427 8.25 12.0625 C7 10 7 10 7 8 C6.01 8 5.02 8 4 8 C4 9.98 4 11.96 4 14 C4.66 14.33 5.32 14.66 6 15 C4.35 15 2.7 15 1 15 C1.33 10.38 1.66 5.76 2 1 C1.34 0.67 0.68 0.34 0 0 Z " fill="#F0FCEB" transform="translate(1060,505)"/>
<path d="M0 0 C6.8359375 -0.1953125 6.8359375 -0.1953125 9 0 C11 2 11 2 11.25 4.5 C11 7 11 7 9 9 C5.875 9.125 5.875 9.125 3 9 C3 10.65 3 12.3 3 14 C3.99 14.33 4.98 14.66 6 15 C4.02 15 2.04 15 0 15 C0 10.05 0 5.1 0 0 Z " fill="#E4F8DE" transform="translate(1563,505)"/>
<path d="M0 0 C1.91015625 0.4453125 1.91015625 0.4453125 4.47265625 2.5078125 C6.3464113 6.33679022 6.03978326 8.37865526 4.91015625 12.4453125 C3.84765625 14.3828125 3.84765625 14.3828125 1.91015625 15.4453125 C-1.18329153 15.83813127 -3.1355958 16.07539355 -6.08984375 15.4453125 C-9.11775416 12.87158866 -9.95147084 11.29284656 -10.58984375 7.3828125 C-10.08984375 4.4453125 -10.08984375 4.4453125 -8.58984375 2.0703125 C-5.55625142 0.09847749 -3.57053359 -0.20021684 0 0 Z M-7.08984375 3.4453125 C-7.60443172 8.6955869 -7.60443172 8.6955869 -5.96484375 13.5078125 C-3.12664481 14.92691197 -1.08009699 14.22537856 1.91015625 13.4453125 C3.35260376 12.2229032 3.35260376 12.2229032 3.16015625 8.5703125 C3.11780524 5.94454995 3.07935437 4.73027775 1.72265625 2.4453125 C-1.76211313 0.52268112 -4.29110976 0.64657851 -7.08984375 3.4453125 Z " fill="#DCF5D5" transform="translate(1349.08984375,504.5546875)"/>
<path d="M0 0 C1.90625 0.453125 1.90625 0.453125 4.40625 2.640625 C6.04845546 5.71976024 6.58814464 7.04365178 5.90625 10.453125 C4.40625 13.265625 4.40625 13.265625 1.90625 15.453125 C-0.9149424 16.1757665 -3.27176466 16.17018685 -6.09375 15.453125 C-9.12166041 12.87940116 -9.95537709 11.30065906 -10.59375 7.390625 C-10.09375 4.453125 -10.09375 4.453125 -8.59375 2.078125 C-5.55853198 0.10523329 -3.57177406 -0.18658521 0 0 Z M-7.09375 3.453125 C-7.60833797 8.7033994 -7.60833797 8.7033994 -5.96875 13.515625 C-3.13055106 14.93472447 -1.08400324 14.23319106 1.90625 13.453125 C3.34869751 12.2307157 3.34869751 12.2307157 3.15625 8.578125 C3.11389899 5.95236245 3.07544812 4.73809025 1.71875 2.453125 C-1.76601938 0.53049362 -4.29501601 0.65439101 -7.09375 3.453125 Z " fill="#D4F2CB" transform="translate(1015.09375,504.546875)"/>
<path d="M0 0 C2.5625 2.0625 2.5625 2.0625 4 5 C4 8.77910616 3.83289714 11.00693033 1.375 13.9375 C-2.01168643 15.45259656 -4.33417263 15.52368962 -8 15 C-10.5 12.9375 -10.5 12.9375 -12 10 C-11.94021398 6.53241058 -11.60965977 4.11173251 -9.9375 1.0625 C-6.72094003 -0.70141999 -3.50614591 -0.73924763 0 0 Z M-9 3 C-9.54449943 8.2479231 -9.54449943 8.2479231 -7.8125 13 C-5.37613976 14.34419875 -3.74026253 14.35131571 -1 14 C1.4282022 12.00442887 1.4282022 12.00442887 1.3125 8.0625 C1.23719217 5.46908648 1.15247863 4.25680612 -0.1875 2 C-3.67226938 0.07736862 -6.20126601 0.20126601 -9 3 Z " fill="#DCF5D5" transform="translate(1478,505)"/>
<path d="M0 0 C3.2779964 0.31138135 4.68067027 0.67325837 7.01953125 3.06640625 C7.61121094 3.89011719 8.20289063 4.71382813 8.8125 5.5625 C9.41707031 6.38878906 10.02164062 7.21507812 10.64453125 8.06640625 C11.09183594 8.70449219 11.53914063 9.34257813 12 10 C12.33 7.03 12.66 4.06 13 1 C12.34 0.67 11.68 0.34 11 0 C12.65 0 14.3 0 16 0 C15.01 0.495 15.01 0.495 14 1 C14 5.62 14 10.24 14 15 C9.77208543 11.61766834 7.72987887 9.44869149 5 5 C5 8.3 5 11.6 5 15 C3.68 14.67 2.36 14.34 1 14 C1.33 9.71 1.66 5.42 2 1 C1.34 0.67 0.68 0.34 0 0 Z " fill="#D9F4D1" transform="translate(1367,505)"/>
<path d="M0 0 C9.97594419 -0.61919654 9.97594419 -0.61919654 13.6875 1.625 C15.43054644 4.77908404 15.65292967 6.44516067 15 10 C13.0625 12.875 13.0625 12.875 10 15 C6.87327402 15.41306246 4.17628148 15.23703593 1 15 C1.33 10.38 1.66 5.76 2 1 C1.34 0.67 0.68 0.34 0 0 Z M4 1 C4 5.29 4 9.58 4 14 C7.43230448 13.73606499 7.43230448 13.73606499 11 13 C13.16551116 9.75173326 13.55156953 8.76905843 13 5 C11.41666667 2.58333333 11.41666667 2.58333333 9 1 C7.35 1 5.7 1 4 1 Z " fill="#ECFBE7" transform="translate(1631,505)"/>
<path d="M0 0 C0.66 0 1.32 0 2 0 C2.34933594 0.91523438 2.69867187 1.83046875 3.05859375 2.7734375 C3.51363281 3.96195312 3.96867187 5.15046875 4.4375 6.375 C5.11619141 8.15003906 5.11619141 8.15003906 5.80859375 9.9609375 C6.89271912 12.86036193 6.89271912 12.86036193 8 15 C6.35 15 4.7 15 3 15 C3 13.02 3 11.04 3 9 C0.55519921 9.18828772 0.55519921 9.18828772 -2 10 C-3.36020151 11.96758273 -3.36020151 11.96758273 -4 14 C-3.34 14.33 -2.68 14.66 -2 15 C-3.65 15 -5.3 15 -7 15 C-3.535 7.575 -3.535 7.575 0 0 Z " fill="#E8FAE2" transform="translate(1131,505)"/>
<path d="M0 0 C3.63 0 7.26 0 11 0 C10.67 0.99 10.34 1.98 10 3 C10 2.34 10 1.68 10 1 C8.02 1 6.04 1 4 1 C4 2.65 4 4.3 4 6 C5.32 6 6.64 6 8 6 C8 5.34 8 4.68 8 4 C8.66 4 9.32 4 10 4 C10 5.65 10 7.3 10 9 C9.34 9 8.68 9 8 9 C8 8.34 8 7.68 8 7 C6.68 7 5.36 7 4 7 C4 8.98 4 10.96 4 13 C6.31 13 8.62 13 11 13 C11.33 12.34 11.66 11.68 12 11 C11.67 12.32 11.34 13.64 11 15 C7.37 15 3.74 15 0 15 C0.66 14.67 1.32 14.34 2 14 C2 9.71 2 5.42 2 1 C1.34 0.67 0.68 0.34 0 0 Z " fill="#DEF7D6" transform="translate(1659,505)"/>
<path d="M0 0 C0.94875 0.04125 1.8975 0.0825 2.875 0.125 C2.545 1.445 2.215 2.765 1.875 4.125 C1.545 3.465 1.215 2.805 0.875 2.125 C-0.115 2.125 -1.105 2.125 -2.125 2.125 C-2.125 3.115 -2.125 4.105 -2.125 5.125 C0.81736782 7.33668225 0.81736782 7.33668225 3.875 9.125 C3 14 3 14 1.875 15.125 C-0.79558851 15.26615161 -3.44932238 15.16747107 -6.125 15.125 C-5.795 13.805 -5.465 12.485 -5.125 11.125 C-5.125 11.785 -5.125 12.445 -5.125 13.125 C-3.145 13.125 -1.165 13.125 0.875 13.125 C0.875 11.805 0.875 10.485 0.875 9.125 C0.070625 8.898125 -0.73375 8.67125 -1.5625 8.4375 C-4.125 7.125 -4.125 7.125 -5.0625 4.625 C-5.083125 3.8 -5.10375 2.975 -5.125 2.125 C-3.125 0.125 -3.125 0.125 0 0 Z " fill="#E2F7DC" transform="translate(1434.125,504.875)"/>
<path d="M0 0 C1.65 0 3.3 0 5 0 C5.33 1.98 5.66 3.96 6 6 C7.32 4.68 8.64 3.36 10 2 C9.67 1.34 9.34 0.68 9 0 C10.32 0.33 11.64 0.66 13 1 C12.360625 1.845625 11.72125 2.69125 11.0625 3.5625 C8.8033727 6.90728565 8.32208241 9.97396992 8 14 C8.66 14.33 9.32 14.66 10 15 C7.69 15 5.38 15 3 15 C3 14.34 3 13.68 3 13 C3.66 13 4.32 13 5 13 C4.54996653 7.37458159 3.31558515 4.38512875 0 0 Z " fill="#D3F1CB" transform="translate(979,505)"/>
<path d="M0 0 C1.98 0 3.96 0 6 0 C5.01 0.495 5.01 0.495 4 1 C4.14037521 2.81293089 4.28744889 4.6253443 4.4375 6.4375 C4.51871094 7.44683594 4.59992188 8.45617187 4.68359375 9.49609375 C4.73211468 11.93640779 4.73211468 11.93640779 6 13 C8.5 13.16666667 8.5 13.16666667 11 13 C12.73956658 11.26043342 12.37190386 8.8063378 12.5625 6.4375 C12.64628906 5.42558594 12.73007813 4.41367187 12.81640625 3.37109375 C12.87699219 2.58863281 12.93757813 1.80617188 13 1 C12.34 0.67 11.68 0.34 11 0 C12.32 0.33 13.64 0.66 15 1 C14.88617347 2.95901454 14.75858875 4.9172338 14.625 6.875 C14.55539062 7.96554687 14.48578125 9.05609375 14.4140625 10.1796875 C14 13 14 13 12 15 C10.125 15.265625 10.125 15.265625 8 15.25 C7.29875 15.25515625 6.5975 15.2603125 5.875 15.265625 C4 15 4 15 2 13 C1.8046875 10.1796875 1.8046875 10.1796875 1.875 6.875 C1.89304687 5.77929688 1.91109375 4.68359375 1.9296875 3.5546875 C1.95289063 2.71164062 1.97609375 1.86859375 2 1 C1.34 0.67 0.68 0.34 0 0 Z " fill="#E8F9E2" transform="translate(1033,505)"/>
<path d="M0 0 C1.65 0 3.3 0 5 0 C4.01 0.495 4.01 0.495 3 1 C3.14037521 2.81293089 3.28744889 4.6253443 3.4375 6.4375 C3.55931641 7.95150391 3.55931641 7.95150391 3.68359375 9.49609375 C3.73211468 11.93640779 3.73211468 11.93640779 5 13 C7.5 13.16666667 7.5 13.16666667 10 13 C11.73956658 11.26043342 11.37190386 8.8063378 11.5625 6.4375 C11.64628906 5.42558594 11.73007813 4.41367187 11.81640625 3.37109375 C11.87699219 2.58863281 11.93757813 1.80617188 12 1 C11.34 0.67 10.68 0.34 10 0 C11.32 0.33 12.64 0.66 14 1 C13.88617347 2.95901454 13.75858875 4.9172338 13.625 6.875 C13.55539062 7.96554687 13.48578125 9.05609375 13.4140625 10.1796875 C13 13 13 13 11 15 C9.125 15.265625 9.125 15.265625 7 15.25 C6.29875 15.25515625 5.5975 15.2603125 4.875 15.265625 C3 15 3 15 1 13 C0.5859375 9.9609375 0.5859375 9.9609375 0.375 6.375 C0.30023437 5.18648438 0.22546875 3.99796875 0.1484375 2.7734375 C0.09945313 1.85820312 0.05046875 0.94296875 0 0 Z " fill="#F0FCEB" transform="translate(1495,505)"/>
<path d="M0 0 C1.4540625 0.0309375 1.4540625 0.0309375 2.9375 0.0625 C3.2675 1.3825 3.5975 2.7025 3.9375 4.0625 C3.2775 4.0625 2.6175 4.0625 1.9375 4.0625 C1.9375 3.0725 1.9375 2.0825 1.9375 1.0625 C0.6175 1.3925 -0.7025 1.7225 -2.0625 2.0625 C-2.0625 3.0525 -2.0625 4.0425 -2.0625 5.0625 C0.87986782 7.27418225 0.87986782 7.27418225 3.9375 9.0625 C3.0625 13.9375 3.0625 13.9375 1.9375 15.0625 C-0.39547433 15.10342937 -2.72955225 15.10491723 -5.0625 15.0625 C-5.3925 13.7425 -5.7225 12.4225 -6.0625 11.0625 C-5.4025 11.0625 -4.7425 11.0625 -4.0625 11.0625 C-3.7325 11.7225 -3.4025 12.3825 -3.0625 13.0625 C-1.7425 13.0625 -0.4225 13.0625 0.9375 13.0625 C0.58870368 9.80706771 -0.08383261 9.04376893 -2.625 6.8125 C-3.429375 6.235 -4.23375 5.6575 -5.0625 5.0625 C-3.9375 0.08035714 -3.9375 0.08035714 0 0 Z " fill="#E2F7DB" transform="translate(1200.0625,504.9375)"/>
<path d="M0 0 C3.09011944 2.58265114 4.21627918 5.48956659 5.6875 9.1875 C6.34298828 10.81751953 6.34298828 10.81751953 7.01171875 12.48046875 C7.33785156 13.31191406 7.66398437 14.14335938 8 15 C6.35 15 4.7 15 3 15 C3 13.02 3 11.04 3 9 C1.35 9.33 -0.3 9.66 -2 10 C-2.33 11.65 -2.66 13.3 -3 15 C-4.32 14.67 -5.64 14.34 -7 14 C-5.68 11.69 -4.36 9.38 -3 7 C-1.35 7.33 0.3 7.66 2 8 C1.67 7.236875 1.34 6.47375 1 5.6875 C0 3 0 3 0 0 Z " fill="#E9FAE4" transform="translate(1248,505)"/>
<path d="M0 0 C3.63 0 7.26 0 11 0 C10.67 0.66 10.34 1.32 10 2 C7.03 1.505 7.03 1.505 4 1 C4 2.65 4 4.3 4 6 C5.65 6 7.3 6 9 6 C9.33 5.34 9.66 4.68 10 4 C10 5.65 10 7.3 10 9 C9.67 8.34 9.34 7.68 9 7 C7.35 7 5.7 7 4 7 C4 9.31 4 11.62 4 14 C4.66 14.33 5.32 14.66 6 15 C4.02 15 2.04 15 0 15 C0.66 14.67 1.32 14.34 2 14 C2 9.71 2 5.42 2 1 C1.34 0.67 0.68 0.34 0 0 Z " fill="#F2FDEE" transform="translate(1217,505)"/>
<path d="M0 0 C1.134375 0.020625 2.26875 0.04125 3.4375 0.0625 C3.1075 1.3825 2.7775 2.7025 2.4375 4.0625 C2.1075 3.4025 1.7775 2.7425 1.4375 2.0625 C0.1175 2.0625 -1.2025 2.0625 -2.5625 2.0625 C-1.16917426 5.42970387 0.4164286 7.0484524 3.4375 9.0625 C2.5625 13.9375 2.5625 13.9375 1.4375 15.0625 C-0.89547433 15.10342937 -3.22955225 15.10491723 -5.5625 15.0625 C-5.2325 13.7425 -4.9025 12.4225 -4.5625 11.0625 C-4.2325 11.7225 -3.9025 12.3825 -3.5625 13.0625 C-2.2425 13.0625 -0.9225 13.0625 0.4375 13.0625 C0.23373822 11.15665804 0.23373822 11.15665804 -0.5625 9.0625 C-1.243125 8.588125 -1.92375 8.11375 -2.625 7.625 C-4.5625 6.0625 -4.5625 6.0625 -4.875 3.4375 C-4.37298113 -0.3778434 -4.04860926 0.07102823 0 0 Z " fill="#E6F9E0" transform="translate(1107.5625,504.9375)"/>
<path d="M0 0 C4.29 0 8.58 0 13 0 C12.67 1.32 12.34 2.64 12 4 C12 3.01 12 2.02 12 1 C10.35 1 8.7 1 7 1 C7.14076315 2.9587043 7.2877676 4.91696093 7.4375 6.875 C7.51871094 7.96554687 7.59992188 9.05609375 7.68359375 10.1796875 C7.83001703 12.94728971 7.83001703 12.94728971 9 15 C7.35 15 5.7 15 4 15 C4.33 10.38 4.66 5.76 5 1 C3.68 1 2.36 1 1 1 C0.67 1.99 0.34 2.98 0 4 C0 2.68 0 1.36 0 0 Z " fill="#D0F0C6" transform="translate(1151,505)"/>
<path d="M0 0 C1.65 0 3.3 0 5 0 C5 4.95 5 9.9 5 15 C3.35 15 1.7 15 0 15 C0 10.05 0 5.1 0 0 Z " fill="#CDEFC3" transform="translate(1321,505)"/>
<path d="M0 0 C0.66 0.33 1.32 0.66 2 1 C1.34 1.66 0.68 2.32 0 3 C-0.333728 6.13704316 -0.52849028 8.16554166 1.1875 10.875 C3.65507108 12.40659584 5.14519831 12.42822025 8 12 C9.81476003 10.60414215 9.81476003 10.60414215 11 9 C11 10.32 11 11.64 11 13 C7.79419594 14.60290203 4.47817686 14.48117071 1 14 C-1.5 12.4375 -1.5 12.4375 -3 10 C-3.74195584 3.95835962 -3.74195584 3.95835962 -1.5 1.0625 C-1.005 0.711875 -0.51 0.36125 0 0 Z " fill="#E9FAE4" transform="translate(1272,506)"/>
<path d="M0 0 C2.475 0.495 2.475 0.495 5 1 C5.38218767 2.65614657 5.71395102 4.32457024 6 6 C5 7 5 7 2.4375 7.0625 C1.2309375 7.0315625 1.2309375 7.0315625 0 7 C0 4.69 0 2.38 0 0 Z " fill="#58B63F" transform="translate(1566,506)"/>
<path d="M0 0 C0.33 1.32 0.66 2.64 1 4 C0.01 4 -0.98 4 -2 4 C-2 4.66 -2 5.32 -2 6 C-3.65 6 -5.3 6 -7 6 C-7 4.35 -7 2.7 -7 1 C-5.5459375 1.0309375 -5.5459375 1.0309375 -4.0625 1.0625 C-1.12534105 1.35618499 -1.12534105 1.35618499 0 0 Z " fill="#60BB47" transform="translate(1228,505)"/>
<path d="M0 0 C0.33 1.32 0.66 2.64 1 4 C-0.32 4 -1.64 4 -3 4 C-3 4.66 -3 5.32 -3 6 C-4.32 6 -5.64 6 -7 6 C-7 4.35 -7 2.7 -7 1 C-5.5459375 1.0309375 -5.5459375 1.0309375 -4.0625 1.0625 C-1.12534105 1.35618499 -1.12534105 1.35618499 0 0 Z " fill="#53B439" transform="translate(1670,505)"/>
<path d="M0 0 C0.66 0 1.32 0 2 0 C2.66 1.98 3.32 3.96 4 6 C3.34 6 2.68 6 2 6 C2 6.66 2 7.32 2 8 C0.35 7.67 -1.3 7.34 -3 7 C-2.01 4.69 -1.02 2.38 0 0 Z " fill="#B6E3A9" transform="translate(1131,505)"/>
<path d="M0 0 C0.33 0 0.66 0 1 0 C0.25 6.75 0.25 6.75 -2 9 C-9.17205692 9.56921087 -9.17205692 9.56921087 -12 7.625 C-13 6 -13 6 -13 4 C-12.01 4.33 -11.02 4.66 -10 5 C-10 5.66 -10 6.32 -10 7 C-5.85513216 7.37388882 -5.85513216 7.37388882 -2.1875 5.75 C-0.88741278 3.83408198 -0.39143023 2.27029534 0 0 Z " fill="#EBF9E6" transform="translate(1019,511)"/>
<path d="M0 0 C2.475 0.495 2.475 0.495 5 1 C5 2.65 5 4.3 5 6 C3.35 6 1.7 6 0 6 C0 4.02 0 2.04 0 0 Z " fill="#55B53B" transform="translate(1590,506)"/>
<path d="M0 0 C0.99 0 1.98 0 3 0 C4.6875 2.5 4.6875 2.5 6 5 C4.125 6.0625 4.125 6.0625 2 7 C1.34 6.67 0.68 6.34 0 6 C0 4.02 0 2.04 0 0 Z " fill="#55B53B" transform="translate(1064,513)"/>
<path d="M0 0 C2.475 0.495 2.475 0.495 5 1 C4.67 2.65 4.34 4.3 4 6 C2.68 6 1.36 6 0 6 C0 4.02 0 2.04 0 0 Z " fill="#50B235" transform="translate(1525,506)"/>
<path d="M0 0 C1.32 0.33 2.64 0.66 4 1 C4.33 2.32 4.66 3.64 5 5 C3.35 5.33 1.7 5.66 0 6 C0 4.02 0 2.04 0 0 Z " fill="#4BB02F" transform="translate(1064,506)"/>
<path d="M0 0 C1.65 0 3.3 0 5 0 C4.01 0.495 4.01 0.495 3 1 C3 5.62 3 10.24 3 15 C2.01 14.34 1.02 13.68 0 13 C0.66 9.04 1.32 5.08 2 1 C1.34 0.67 0.68 0.34 0 0 Z " fill="#F5FEF1" transform="translate(1378,505)"/>
<path d="M0 0 C0 3 0 3 -1.875 5.1875 C-4 7 -4 7 -6 7 C-6.33 7.99 -6.66 8.98 -7 10 C-7.66 10 -8.32 10 -9 10 C-7.61811547 6.78956118 -6.07578097 4.95063635 -3.375 2.75 C-2.74335937 2.22921875 -2.11171875 1.7084375 -1.4609375 1.171875 C-0.73777344 0.59179688 -0.73777344 0.59179688 0 0 Z " fill="#52B438" transform="translate(1017,321)"/>
<path d="M0 0 C0.66 1.32 1.32 2.64 2 4 C1 5 1 5 -0.84765625 5.09765625 C-2.8984375 5.06510417 -4.94921875 5.03255208 -7 5 C-6.67 3.68 -6.34 2.36 -6 1 C-6 1.66 -6 2.32 -6 3 C-4.02 3 -2.04 3 0 3 C0 2.01 0 1.02 0 0 Z " fill="#B7E5AA" transform="translate(1435,515)"/>
<path d="M0 0 C0.33 0 0.66 0 1 0 C1 2.64 1 5.28 1 8 C0.01 8 -0.98 8 -2 8 C-2.125 5.125 -2.125 5.125 -2 2 C-1.34 1.34 -0.68 0.68 0 0 Z " fill="#D0EFC8" transform="translate(1341,507)"/>
<path d="M0 0 C0.33 0 0.66 0 1 0 C1.06058594 0.77085937 1.12117188 1.54171875 1.18359375 2.3359375 C1.26738281 3.33882813 1.35117188 4.34171875 1.4375 5.375 C1.55931641 6.87160156 1.55931641 6.87160156 1.68359375 8.3984375 C1.84965626 10.97927613 1.84965626 10.97927613 3 13 C1.35 13 -0.3 13 -2 13 C-1.67 12.34 -1.34 11.68 -1 11 C-0.7724985 9.12943209 -0.59037189 7.25314042 -0.4375 5.375 C-0.35371094 4.37210937 -0.26992187 3.36921875 -0.18359375 2.3359375 C-0.12300781 1.56507813 -0.06242187 0.79421875 0 0 Z " fill="#F2FDEF" transform="translate(1157,507)"/>
<path d="M0 0 C2.35953094 2.35953094 2.49141413 3.77895617 3 7 C1.35 6.67 -0.3 6.34 -2 6 C-1.34 4.02 -0.68 2.04 0 0 Z " fill="#94D482" transform="translate(1247,506)"/>
<path d="M0 0 C0.53625 0.28875 1.0725 0.5775 1.625 0.875 C4.35280484 2.16711808 7.12612718 3.08558592 10 4 C10 4.33 10 4.66 10 5 C3.51707705 5.3669579 3.51707705 5.3669579 1.0625 3.625 C0 2 0 2 0 0 Z " fill="#EAFAE4" transform="translate(1467,515)"/>
<path d="M0 0 C0.556875 0.28875 1.11375 0.5775 1.6875 0.875 C4.08494645 2.0413253 6.51596939 3.0339881 9 4 C9 4.33 9 4.66 9 5 C3.5 5.36666667 3.5 5.36666667 1.125 3.625 C0 2 0 2 0 0 Z " fill="#EAF9E5" transform="translate(1340,515)"/>
</svg>
